<svg width="480" height="480" viewBox="0 0 480 480" fill="none" xmlns="http://www.w3.org/2000/svg">
<path d="M174.157 187.216C184.565 187.216 193.004 192.162 193.004 198.264C193.004 204.365 184.566 209.312 174.157 209.312C163.749 209.312 155.311 204.365 155.311 198.264C155.311 192.162 163.749 187.216 174.157 187.216ZM360.022 187.216C370.431 187.216 378.869 192.162 378.869 198.264C378.869 204.365 370.431 209.312 360.022 209.312C349.614 209.312 341.176 204.365 341.176 198.264C341.176 192.162 349.614 187.216 360.022 187.216Z" fill="#EF8B9B"/>
<path fill-rule="evenodd" clip-rule="evenodd" d="M124.704 100.431C225.807 53.7886 326.4 74.7722 365.299 91.5641L366.206 91.9606L367.48 92.5221L367.952 93.8317C376.864 118.558 385.735 154.09 387.311 189.271C399.924 186.075 417.995 182.131 433.474 180.14C441.57 179.099 449.187 178.561 455.001 179.022C457.879 179.25 460.625 179.744 462.833 180.738C465.066 181.743 467.372 183.581 467.905 186.698C468.791 191.892 467.758 196.167 465.784 199.501C469.984 207.933 471.131 220.41 462.331 232.522C453.059 245.283 433.222 256.955 396.192 263.652L394.803 255.978C431.077 249.418 448.501 238.291 456.023 227.938C461.973 219.749 462.016 211.63 459.904 205.585C458.076 206.787 456.24 207.576 454.721 208.005L453.663 204.252L452.605 200.499C454.09 200.08 456.423 198.896 458.14 196.848C459.716 194.968 460.888 192.24 460.246 188.196C460.153 188.122 459.969 188.001 459.631 187.848C458.62 187.393 456.908 186.996 454.384 186.796C449.393 186.4 442.42 186.852 434.469 187.875C418.713 189.901 400.02 194.04 387.54 197.261C387.615 203.357 387.453 209.417 387.015 215.382C385.439 236.839 380.286 257.304 369.577 273.825C364.483 281.684 358.156 288.609 350.427 294.303C366.661 291.809 377.863 292.637 385.374 295.465C391.414 297.74 395.21 301.369 397.079 305.675C398.863 309.785 398.723 314.128 397.666 317.808C394.564 349.489 373.677 371.181 349.443 385.335C325.143 399.526 297.027 406.438 278.492 408.479L276.492 408.7L275.404 407.007L254.333 374.231L233.435 406.997L232.477 408.499H230.696C216.479 408.499 202.712 401.908 191.469 394.018C180.183 386.098 171.068 376.606 166.072 370.206L164.427 368.1L166.175 366.08L200.624 326.278C184.864 331.593 161.76 333.528 128.609 328.998L129.048 325.778L129.488 322.559C171.035 328.236 195.235 323.394 208.643 315.638C217.803 310.34 222.005 303.654 223.417 297.726C222.019 298.605 220.454 299.424 218.711 300.171L215.494 294.575L224.655 287.773C226.272 285.153 226.359 282.292 225.532 279.417C224.639 276.314 222.722 273.414 220.899 271.45L223.281 269.239L225.661 267.028C227.998 269.544 230.537 273.311 231.777 277.62C232.943 281.675 232.987 286.383 230.408 290.812C231.022 298.26 228.407 307.404 220.229 315.123L256.963 366.312L257.012 366.38L257.057 366.45L277.679 398.529C308.4 335.216 364.393 315.995 391.832 314.075C392.1 312.099 391.912 310.091 391.118 308.263C390.063 305.833 387.767 303.311 383.084 301.548C374.275 298.23 357.615 297.845 328.168 305.773C325.292 306.746 322.293 307.603 319.167 308.333L317.107 308.814L315.834 307.124L297.962 283.403L300.558 281.448L303.153 279.493L319.668 301.413C321.937 300.749 324.146 300.128 326.294 299.548C343.42 293.704 355.628 283.398 364.124 270.29C374.037 254.996 379.006 235.714 380.534 214.907C383.492 174.618 373.487 129.493 362.91 99.0661C269.712 131.118 170.509 118.629 128.629 107.459C123.351 137.664 120.757 180.572 127.082 219.266L120.686 220.415C113.931 179.196 117.088 133.6 122.872 102.782L123.182 101.133L124.704 100.431ZM172.87 368.273C177.768 374.121 185.673 382.011 195.202 388.699C205.44 395.884 217.217 401.447 228.939 401.961L250.401 368.313L215.242 319.32L172.87 368.273ZM390.772 320.679C364.72 323.052 312.564 341.643 283.579 401.257C301.197 398.597 325.232 391.948 346.165 379.722C368.456 366.704 386.813 347.64 390.772 320.679ZM136.208 217.396C143.545 210.595 151.085 208.277 158.324 209.39C165.384 210.477 171.591 214.744 176.637 219.945C181.712 225.176 185.87 231.612 188.825 237.578L185.912 239.019L183 240.462C180.269 234.946 176.473 229.109 171.973 224.47C167.444 219.802 162.452 216.601 157.335 215.813C152.397 215.053 146.781 216.456 140.627 222.162C134.38 227.954 127.692 238.1 121.022 254.511C118.668 260.693 115.612 271.213 114.164 282.504C112.703 293.9 112.947 305.601 116.759 314.416L113.776 315.705L110.793 316.995C106.287 306.574 106.206 293.47 107.718 281.677C109.241 269.801 112.446 258.763 114.964 252.159L114.977 252.127L114.99 252.093C121.833 235.248 128.968 224.108 136.208 217.396ZM189.162 256.211C192.914 255.727 196.551 255.455 199.88 255.493C204.246 255.543 208.412 256.125 211.64 257.722C215.07 259.419 217.526 262.345 217.75 266.615C217.955 270.517 216.251 275.011 213.025 280.082L210.283 278.338L207.541 276.592C210.522 271.908 211.358 268.828 211.26 266.956C211.181 265.453 210.49 264.404 208.758 263.547C206.824 262.59 203.81 262.038 199.806 261.992C195.87 261.947 191.286 262.392 186.43 263.175C177.391 264.634 167.679 267.22 159.946 269.73L157.94 263.549C165.135 261.213 174.037 258.8 182.663 257.231V250.717H189.162V256.211ZM26.2659 129.657C39.1862 112.648 61.4429 101.409 97.2767 106.826L98.9935 107.096L101.705 107.541L101.717 110.289L102.366 260.055L102.375 262.191L100.419 263.048C85.1411 269.733 61.9421 274.1 42.7855 264.3C23.2816 254.324 9.372 230.46 11.1536 183.844C10.2308 168.663 13.4068 146.586 26.2659 129.657ZM95.2298 113.096C62.0295 108.361 42.5846 118.917 31.4407 133.588C20.1446 148.459 16.9499 168.119 17.5765 182.258L17.6487 183.61L17.6595 183.775L17.6526 183.941C15.881 229.452 29.4507 250.179 45.7444 258.514C61.6701 266.661 81.5132 263.714 95.8577 257.915L95.2298 113.096ZM251.515 188.261C249.399 192.811 246.015 195.868 242.29 197.881C245.875 203.14 251.485 208.676 258.451 211.186C266.463 214.073 277.018 213.225 289.559 201.423L291.785 203.789L294.013 206.155C280.039 219.307 266.98 221.167 256.248 217.3C247.065 213.992 240.167 206.69 236.104 200.297C230.712 201.727 225.29 201.673 221.774 201.154L222.723 194.724C225.652 195.156 230.451 195.186 235.028 193.853C239.571 192.53 243.546 189.986 245.622 185.521L251.515 188.261ZM212.825 161.872C215.875 161.872 218.349 166.381 218.349 171.944C218.349 177.507 215.875 182.017 212.825 182.017C209.774 182.017 207.301 177.507 207.301 171.944C207.301 166.381 209.774 161.872 212.825 161.872ZM316.156 161.872C319.206 161.872 321.68 166.381 321.68 171.944C321.68 177.507 319.206 182.017 316.156 182.017C313.105 182.017 310.632 177.507 310.632 171.944C310.632 166.381 313.105 161.872 316.156 161.872ZM264.347 163.995C268.043 163.491 273.779 163.222 277.949 164.692C280.052 165.434 282.706 166.971 283.608 170.094C284.484 173.131 283.256 176.18 281.399 178.855L278.196 176.632L274.993 174.407C275.752 173.315 275.982 172.666 276.055 172.361C275.923 172.281 275.705 172.171 275.356 172.048C273.027 171.227 268.853 171.251 265.4 171.721L264.347 163.995ZM355.563 94.6716C314.919 79.5879 226.301 64.2461 135.885 102.591C178.812 112.886 269.388 122.691 355.563 94.6716Z" fill="#4F4B1A"/>
</svg>
