<svg width="480" height="480" viewBox="0 0 480 480" fill="none" xmlns="http://www.w3.org/2000/svg">
<path d="M174.157 187.216C184.565 187.216 193.004 192.162 193.004 198.264C193.004 204.365 184.566 209.312 174.157 209.312C163.749 209.312 155.311 204.365 155.311 198.264C155.311 192.162 163.749 187.216 174.157 187.216ZM360.022 187.216C370.431 187.216 378.869 192.162 378.869 198.264C378.869 204.365 370.431 209.312 360.022 209.312C349.614 209.312 341.176 204.365 341.176 198.264C341.176 192.162 349.614 187.216 360.022 187.216Z" fill="#EF8B9B"/>
<path d="M124.705 100.432C225.808 53.7893 326.401 74.773 365.3 91.5649L366.207 91.9614L367.48 92.5229L367.953 93.8325C376.865 118.559 385.736 154.09 387.312 189.271C399.925 186.075 417.995 182.13 433.474 180.14C441.569 179.099 449.187 178.561 455.001 179.022C457.879 179.25 460.625 179.744 462.833 180.738C465.066 181.743 467.372 183.581 467.904 186.698C468.791 191.892 467.759 196.168 465.784 199.501C469.985 207.934 471.132 220.411 462.332 232.522C453.06 245.283 433.223 256.955 396.192 263.652L394.804 255.978C431.078 249.418 448.501 238.291 456.023 227.938C461.973 219.75 462.018 211.631 459.905 205.585C458.078 206.788 456.24 207.576 454.721 208.004L453.663 204.251L452.604 200.499C454.09 200.079 456.423 198.896 458.14 196.848C459.716 194.967 460.888 192.24 460.246 188.196C460.153 188.122 459.969 188 459.631 187.848C458.619 187.393 456.908 186.996 454.384 186.795C449.392 186.4 442.419 186.852 434.469 187.875C418.713 189.9 400.02 194.039 387.541 197.26C387.615 203.357 387.454 209.418 387.016 215.383C385.44 236.84 380.286 257.305 369.578 273.826C364.484 281.684 358.156 288.61 350.428 294.304C366.662 291.81 377.864 292.638 385.375 295.466C391.415 297.741 395.211 301.37 397.08 305.676C398.864 309.786 398.724 314.128 397.667 317.809C394.565 349.49 373.678 371.182 349.443 385.335C325.144 399.527 297.028 406.439 278.493 408.48L276.492 408.701L275.404 407.007L254.334 374.232L233.436 406.998L232.478 408.5H230.696C216.48 408.499 202.713 401.909 191.47 394.019C180.184 386.099 171.069 376.607 166.072 370.207L164.428 368.101L166.176 366.081L200.626 326.278C184.865 331.593 161.761 333.528 128.608 328.998L129.048 325.778L129.487 322.559C171.034 328.236 195.234 323.394 208.643 315.638C217.803 310.34 222.005 303.654 223.417 297.726C222.019 298.605 220.454 299.423 218.711 300.17L215.494 294.575L224.654 287.773C226.271 285.152 226.359 282.292 225.531 279.417C224.639 276.314 222.722 273.414 220.898 271.45L223.28 269.239L225.661 267.028C227.997 269.544 230.537 273.311 231.776 277.62C232.943 281.675 232.987 286.383 230.408 290.812C231.022 298.259 228.407 307.404 220.229 315.123L256.964 366.313L257.013 366.38L257.058 366.451L277.68 398.53C308.401 335.216 364.394 315.996 391.833 314.076C392.101 312.1 391.912 310.092 391.119 308.264C390.064 305.834 387.767 303.312 383.085 301.548C374.276 298.231 357.616 297.845 328.169 305.774C325.293 306.747 322.294 307.604 319.168 308.333L317.107 308.815L315.835 307.125L297.963 283.404L300.559 281.449L303.153 279.494L319.669 301.414C321.938 300.749 324.146 300.128 326.295 299.548C343.42 293.705 355.629 283.399 364.125 270.291C374.038 254.997 379.006 235.714 380.534 214.908C383.492 174.618 373.487 129.494 362.911 99.0669C269.712 131.119 170.509 118.63 128.63 107.459C123.351 137.665 120.757 180.572 127.083 219.267L120.687 220.416C113.932 179.197 117.089 133.601 122.873 102.783L123.183 101.134L124.705 100.432ZM172.871 368.274C177.769 374.121 185.674 382.012 195.203 388.7C205.441 395.885 217.217 401.448 228.939 401.961L250.401 368.314L215.243 319.321L172.871 368.274ZM390.772 320.68C364.721 323.052 312.565 341.643 283.58 401.257C301.198 398.598 325.233 391.948 346.166 379.723C368.456 366.705 386.814 347.641 390.772 320.68ZM136.208 217.396C143.544 210.594 151.084 208.276 158.323 209.39C165.383 210.477 171.59 214.743 176.637 219.945C181.712 225.176 185.87 231.612 188.824 237.578L185.912 239.019L183 240.461C180.268 234.946 176.473 229.109 171.973 224.47C167.444 219.802 162.452 216.6 157.335 215.813C152.397 215.053 146.781 216.456 140.627 222.162C134.38 227.953 127.691 238.1 121.021 254.511C118.668 260.693 115.612 271.212 114.164 282.503C112.703 293.9 112.947 305.601 116.759 314.416L113.775 315.705L110.793 316.995C106.287 306.573 106.206 293.47 107.718 281.677C109.24 269.801 112.445 258.763 114.964 252.159L114.977 252.126L114.989 252.093C121.833 235.248 128.968 224.108 136.208 217.396ZM189.162 256.21C192.914 255.726 196.55 255.455 199.88 255.493C204.246 255.543 208.412 256.125 211.64 257.722C215.07 259.419 217.526 262.344 217.75 266.615C217.955 270.517 216.251 275.011 213.024 280.082L210.282 278.337L207.541 276.592C210.522 271.908 211.358 268.828 211.26 266.956C211.181 265.452 210.49 264.403 208.758 263.546C206.823 262.589 203.81 262.037 199.806 261.992C195.87 261.947 191.286 262.392 186.43 263.175C177.391 264.634 167.678 267.22 159.945 269.73L157.939 263.548C165.135 261.213 174.037 258.8 182.663 257.231V250.717H189.162V256.21ZM26.2666 129.657C39.187 112.648 61.4437 101.41 97.2773 106.827L98.9932 107.096L101.706 107.542L101.718 110.289L102.366 260.056L102.376 262.191L100.42 263.047C85.1418 269.733 61.942 274.1 42.7852 264.3C23.2815 254.323 9.3726 230.46 11.1543 183.844C10.2315 168.663 13.4074 146.585 26.2666 129.657ZM95.2305 113.096C62.0301 108.36 42.5853 118.918 31.4414 133.588C20.1455 148.459 16.9506 168.118 17.5771 182.258L17.6494 183.61L17.6602 183.775L17.6533 183.941C15.8816 229.452 29.4513 250.18 45.7451 258.515C61.6708 266.662 81.5139 263.714 95.8584 257.915L95.2305 113.096ZM251.515 188.261C249.399 192.81 246.015 195.868 242.291 197.88C245.875 203.14 251.485 208.676 258.451 211.186C266.463 214.073 277.018 213.225 289.559 201.422L291.785 203.789L294.013 206.155C280.038 219.307 266.98 221.167 256.248 217.3C247.065 213.992 240.166 206.691 236.104 200.297C230.712 201.727 225.29 201.673 221.773 201.154L222.723 194.724C225.652 195.156 230.45 195.186 235.027 193.853C239.571 192.53 243.546 189.986 245.622 185.521L251.515 188.261ZM212.825 161.872C215.876 161.872 218.349 166.382 218.349 171.945C218.349 177.508 215.876 182.018 212.825 182.018C209.774 182.018 207.301 177.508 207.301 171.945C207.301 166.382 209.774 161.872 212.825 161.872ZM316.156 161.872C319.207 161.872 321.68 166.382 321.68 171.945C321.68 177.508 319.207 182.018 316.156 182.018C313.105 182.018 310.632 177.508 310.632 171.945C310.632 166.382 313.105 161.872 316.156 161.872ZM264.347 163.995C268.042 163.491 273.779 163.222 277.948 164.692C280.052 165.433 282.706 166.97 283.607 170.094C284.484 173.131 283.256 176.18 281.398 178.855L278.195 176.631L274.993 174.407C275.751 173.315 275.982 172.666 276.055 172.361C275.923 172.281 275.705 172.17 275.355 172.047C273.026 171.226 268.852 171.25 265.399 171.721L264.347 163.995ZM355.563 94.6724C314.92 79.5887 226.302 64.2468 135.886 102.591C178.813 112.887 269.389 122.692 355.563 94.6724Z" fill="#FCF5E8"/>
</svg>
